<svg width="188" height="58" viewBox="0 0 188 58" fill="none" xmlns="http://www.w3.org/2000/svg">
<path d="M45.2203 42.3538C42.6944 42.3538 40.3533 41.7046 38.2894 40.3753C36.1948 39.0768 34.5314 37.3147 33.2992 35.0888C32.067 32.8629 31.4202 30.4206 31.4202 27.7309C31.4202 25.7215 31.7898 23.8356 32.4983 22.0735C33.2068 20.3113 34.1925 18.7655 35.4555 17.4053C36.7184 16.0759 38.197 15.0248 39.8604 14.2519C41.5238 13.5099 43.3105 13.108 45.2203 13.108C47.3766 13.108 49.348 13.5718 51.1346 14.4683C52.9213 15.3958 54.4614 16.6324 55.6936 18.209C56.9566 19.7857 57.8499 21.6097 58.4351 23.6501C59.0204 25.6905 59.1436 27.7928 58.8356 30.0187H38.6591C38.9055 31.0389 39.3368 31.9972 39.922 32.801C40.5073 33.6357 41.2466 34.285 42.1707 34.7796C43.064 35.2743 44.0805 35.5216 45.2511 35.5525C46.4216 35.5834 47.4998 35.2743 48.4547 34.7178C49.4096 34.1304 50.2413 33.3575 50.8574 32.3373L57.7267 33.9449C56.6177 36.3872 54.9235 38.3967 52.7056 39.9734C50.4878 41.5501 47.9926 42.3538 45.2203 42.3538ZM38.4126 25.0104H51.9971C51.7815 23.8975 51.3811 22.9082 50.7034 22.0116C50.0565 21.1151 49.2556 20.404 48.3007 19.8785C47.3458 19.3529 46.2984 19.0747 45.2203 19.0747C44.1114 19.0747 43.0948 19.3529 42.1399 19.8785C41.2158 20.404 40.4149 21.1151 39.7372 22.0116C39.1211 22.8463 38.6591 23.8665 38.4126 25.0104Z" fill="white"/>
<path d="M70.6639 42.292C69.2161 42.1992 67.83 41.921 66.5054 41.4264C65.1808 40.9317 63.9795 40.2825 62.963 39.4169C61.9464 38.5822 61.1455 37.562 60.5911 36.3563L66.2898 33.914C66.5054 34.2849 66.8751 34.6868 67.3679 35.0887C67.8608 35.4906 68.446 35.8616 69.1545 36.1399C69.8322 36.4181 70.6023 36.5418 71.434 36.5418C72.1425 36.5418 72.7894 36.449 73.4363 36.2635C74.0832 36.078 74.576 35.7689 74.9765 35.367C75.3769 34.9651 75.5617 34.4395 75.5617 33.7903C75.5617 33.1102 75.3153 32.5846 74.8532 32.1827C74.3912 31.8117 73.8059 31.5026 73.0974 31.3171C72.3889 31.1316 71.7113 30.9461 71.0336 30.7915C69.2777 30.4515 67.6451 29.895 66.1666 29.153C64.6572 28.411 63.4558 27.4527 62.5317 26.2779C61.6076 25.1031 61.1763 23.681 61.1763 22.0116C61.1763 20.1876 61.6692 18.6109 62.6241 17.2816C63.579 15.9522 64.842 14.932 66.413 14.2209C67.9532 13.5099 69.6474 13.1389 71.4648 13.1389C73.6519 13.1389 75.6541 13.6026 77.5024 14.4992C79.3198 15.4266 80.7984 16.6942 81.8457 18.3636L76.5167 21.5169C76.2702 21.0841 75.9006 20.6513 75.4385 20.2803C74.9765 19.9094 74.4528 19.6002 73.8675 19.3529C73.2822 19.1056 72.6662 18.951 72.0193 18.9201C71.1876 18.8892 70.4483 18.951 69.7398 19.1365C69.0621 19.322 68.5077 19.6311 68.1072 20.0639C67.7068 20.4967 67.4911 21.0841 67.4911 21.8261C67.4911 22.5371 67.7684 23.0627 68.3228 23.4028C68.8773 23.7428 69.555 24.0211 70.3251 24.2066C71.0952 24.3921 71.8653 24.6085 72.5738 24.8249C74.2064 25.3504 75.7158 26.0306 77.1327 26.8035C78.5497 27.5763 79.7203 28.5347 80.5828 29.6477C81.4453 30.7606 81.8765 32.1209 81.8149 33.6975C81.8149 35.4906 81.2913 37.0673 80.2131 38.3967C79.135 39.726 77.7796 40.7462 76.0854 41.4573C74.3912 42.1683 72.5738 42.4466 70.6639 42.292Z" fill="white"/>
<path d="M87.3906 12.8607C86.4049 12.8607 85.5732 12.5207 84.8647 11.8715C84.187 11.2222 83.8481 10.3875 83.8481 9.39824C83.8481 8.40895 84.187 7.60515 84.8647 6.92502C85.5424 6.24488 86.3741 5.93573 87.3598 5.93573C88.3455 5.93573 89.1464 6.2758 89.8241 6.92502C90.5018 7.60515 90.8406 8.40895 90.8406 9.39824C90.8406 10.3875 90.5018 11.2222 89.8549 11.8715C89.1772 12.5207 88.3455 12.8607 87.3906 12.8607ZM83.9406 14.4993H90.6866V42.1993H83.9406V14.4993Z" fill="white"/>
<path d="M156.822 34.6869C157.808 34.6869 158.64 35.027 159.348 35.6762C160.026 36.3254 160.365 37.1601 160.365 38.1494C160.365 39.1387 160.026 39.9425 159.348 40.6226C158.67 41.3028 157.839 41.6119 156.853 41.6119C155.867 41.6119 155.066 41.2718 154.389 40.6226C153.711 39.9425 153.372 39.1387 153.372 38.1494C153.372 37.1601 153.711 36.3254 154.358 35.6762C155.035 35.027 155.836 34.6869 156.822 34.6869Z" fill="white"/>
<path d="M160.242 13.139H153.496V33.0484H160.242V13.139Z" fill="white"/>
<path d="M87.4214 5.84302C88.4379 5.84302 89.3312 6.18309 90.0397 6.86322C90.7482 7.54336 91.0871 8.40898 91.0871 9.42919C91.0871 10.4494 90.7482 11.2841 90.0397 11.9952C89.3312 12.6753 88.4687 13.0463 87.4522 13.0463C86.4357 13.0463 85.5732 12.7062 84.8955 12.0261C84.187 11.3459 83.8481 10.4803 83.8481 9.4601C83.8481 8.4399 84.187 7.57427 84.8647 6.89414C85.5732 6.18309 86.4049 5.84302 87.4214 5.84302Z" fill="white"/>
<path d="M151.432 24.1138V41.6428H144.686V25.876C144.686 24.794 144.409 23.8047 143.885 22.9081C143.361 22.0116 142.653 21.3005 141.759 20.775C140.866 20.2494 139.88 19.9712 138.802 19.9712C137.724 19.9712 136.738 20.2494 135.845 20.775C134.952 21.3005 134.243 22.0116 133.72 22.9081C133.196 23.8047 132.919 24.794 132.919 25.876V41.6119H126.173L126.142 13.9118H132.888L132.919 16.385C133.843 15.3957 134.983 14.5919 136.276 14.0045C137.57 13.4172 138.987 13.1389 140.496 13.1389C142.499 13.1389 144.347 13.6336 145.98 14.6228C147.643 15.6121 148.967 16.9415 149.953 18.58C150.939 20.2185 151.432 22.0734 151.432 24.1138Z" fill="white"/>
<path d="M187.657 24.1138V41.6428H180.911V25.876C180.911 24.794 180.634 23.8047 180.11 22.9081C179.586 22.0116 178.878 21.3005 177.984 20.775C177.091 20.2494 176.105 19.9712 175.027 19.9712C173.949 19.9712 172.963 20.2494 172.07 20.775C171.177 21.3005 170.468 22.0116 169.945 22.9081C169.39 23.8047 169.113 24.794 169.113 25.876V41.6119H162.367V13.9118H169.113L169.144 16.385C170.068 15.3957 171.208 14.5919 172.501 14.0045C173.795 13.4172 175.212 13.1389 176.722 13.1389C178.724 13.1389 180.572 13.6336 182.205 14.6228C183.868 15.6121 185.193 16.9415 186.178 18.58C187.164 20.2494 187.657 22.0734 187.657 24.1138Z" fill="white"/>
<path d="M98.3257 46.5584L93.6436 51.4739C93.6436 51.4739 107.012 63.4999 122.106 51.7521L117.363 46.4656C117.393 46.4966 108.891 55.3074 98.3257 46.5584Z" fill="url(#paint0_linear_10_87)"/>
<path d="M124.047 13.9737H112.034H111.972C110.463 13.4172 108.83 13.108 107.105 13.108C99.2192 13.108 92.812 19.5384 92.812 27.4527C92.812 35.367 99.2192 41.7974 107.105 41.7974C114.991 41.7974 121.398 35.367 121.398 27.4527C121.398 24.9486 120.751 22.599 119.642 20.5586H123.986L124.047 13.9737ZM107.105 35.4597C102.7 35.4597 99.1268 31.8736 99.1268 27.4527C99.1268 23.0318 102.7 19.4457 107.105 19.4457C111.51 19.4457 115.083 23.0318 115.083 27.4527C115.083 31.8736 111.51 35.4597 107.105 35.4597Z" fill="white"/>
<path d="M22.5176 0V17.3125C21.6551 16.0759 20.5462 15.0557 19.1908 14.2828C17.8354 13.51 16.2952 13.139 14.5086 13.139C12.5064 13.139 10.6273 13.51 8.87151 14.2828C7.14649 15.0248 5.6063 16.0759 4.25093 17.4053C2.92637 18.7346 1.87903 20.2804 1.10894 22.0426C0.369646 23.8047 0 25.6906 0 27.7001C0 29.7095 0.369646 31.5954 1.13974 33.3575C1.87903 35.1197 2.92637 36.6655 4.28174 37.9948C5.6063 39.3242 7.14649 40.3753 8.90231 41.1482C10.6581 41.8902 12.5372 42.292 14.5394 42.292C16.2952 42.292 17.8662 41.8902 19.2216 41.1173C20.577 40.3444 21.6859 39.3242 22.5484 38.0876V41.5501H29.2637V0H22.5176ZM18.4207 34.6869C17.3118 35.398 16.0488 35.7689 14.601 35.7689C14.5086 35.7689 14.447 35.7689 14.3546 35.7689C13.0608 35.738 11.8595 35.367 10.7813 34.6869C9.6108 33.9758 8.68669 32.9866 7.9782 31.7809C7.2389 30.5752 6.90006 29.2149 6.90006 27.7001C6.90006 26.1852 7.2389 24.8559 7.94739 23.6192C8.62508 22.4135 9.54919 21.4552 10.7197 20.7132C11.8287 20.0331 13.03 19.6621 14.3238 19.6312C14.4162 19.6312 14.5086 19.6312 14.5702 19.6312C15.9872 19.6312 17.2502 20.0022 18.3591 20.7132C19.1292 21.2079 19.7761 21.8262 20.2997 22.5681C20.6078 22.8773 20.8234 23.2483 21.0082 23.6192C21.6243 24.8559 21.9323 26.2161 21.9323 27.7001C21.9323 29.184 21.6243 30.5443 21.0082 31.75C20.8234 32.1209 20.6078 32.461 20.3921 32.7702C19.8685 33.543 19.1908 34.1923 18.4207 34.6869Z" fill="white"/>
<path d="M18.544 27.7C18.544 29.9877 16.6958 31.8426 14.4163 31.8426C12.1368 31.8426 10.2886 29.9877 10.2886 27.7C10.2886 25.4122 12.1368 23.5573 14.4163 23.5573C16.6958 23.5573 18.544 25.4122 18.544 27.7Z" fill="white"/>
<path d="M149.43 57.0076C149.06 57.0076 148.69 56.9149 148.352 56.7912C148.013 56.6676 147.705 56.4821 147.428 56.2657C147.181 56.0493 146.965 55.8019 146.873 55.5237L147.859 55.1218C147.92 55.2764 148.044 55.431 148.228 55.5546C148.413 55.6783 148.598 55.8019 148.844 55.8947C149.091 55.9874 149.307 56.0183 149.553 56.0183C149.799 56.0183 150.046 55.9874 150.261 55.8947C150.477 55.8019 150.662 55.7092 150.785 55.5546C150.908 55.4 151.001 55.2146 151.001 54.9981C151.001 54.7817 150.939 54.5962 150.785 54.4726C150.631 54.3489 150.446 54.2253 150.2 54.1634C149.984 54.1016 149.738 54.0089 149.491 53.947C149.029 53.8234 148.598 53.6997 148.228 53.5142C147.859 53.3596 147.582 53.1432 147.366 52.865C147.15 52.6177 147.058 52.2776 147.058 51.8757C147.058 51.4429 147.181 51.0719 147.397 50.7628C147.612 50.4536 147.951 50.2063 148.321 50.0517C148.69 49.8971 149.122 49.8044 149.553 49.8044C150.107 49.8044 150.6 49.928 151.062 50.1444C151.524 50.3918 151.863 50.7009 152.079 51.1028L151.155 51.6284C151.062 51.4738 150.97 51.3192 150.816 51.1956C150.662 51.0719 150.477 50.9792 150.261 50.8864C150.046 50.8246 149.861 50.7628 149.645 50.7628C149.368 50.7628 149.122 50.7937 148.906 50.8555C148.69 50.9173 148.506 51.041 148.352 51.1956C148.198 51.3501 148.136 51.5356 148.136 51.783C148.136 51.9994 148.198 52.1849 148.352 52.3085C148.506 52.4322 148.69 52.5249 148.937 52.5868C149.183 52.6486 149.43 52.7413 149.707 52.8341C150.107 52.9577 150.508 53.1123 150.878 53.2978C151.247 53.4833 151.524 53.6997 151.74 53.947C151.956 54.1943 152.079 54.5344 152.048 54.9054C152.048 55.3382 151.925 55.6783 151.678 55.9874C151.432 56.2966 151.093 56.5439 150.724 56.6985C150.292 56.9458 149.892 57.0076 149.43 57.0076Z" fill="white"/>
<path d="M158.055 51.1957H156.514V56.8841H155.375V51.1957H154.204V50.0518H155.375V47.9186H156.514V50.0518H158.055V51.1957Z" fill="white"/>
<path d="M160.211 54.2871V50.0517H161.351V54.0398C161.351 54.3798 161.443 54.689 161.597 54.9672C161.751 55.2455 161.998 55.4619 162.275 55.6474C162.552 55.8019 162.86 55.8947 163.199 55.8947C163.538 55.8947 163.846 55.8019 164.123 55.6474C164.4 55.4928 164.616 55.2455 164.801 54.9672C164.955 54.689 165.047 54.3798 165.047 54.0398V50.0517H166.187V56.884H165.047V56.0183C164.801 56.3275 164.493 56.6057 164.123 56.7912C163.753 56.9767 163.353 57.0695 162.922 57.0695C162.429 57.0695 161.936 56.9458 161.536 56.6985C161.104 56.4511 160.796 56.1111 160.55 55.7092C160.334 55.2455 160.211 54.7817 160.211 54.2871Z" fill="white"/>
<path d="M174.258 46.6202H175.397V56.8531H174.258V55.6783C174.011 56.0802 173.703 56.3894 173.333 56.6367C172.933 56.884 172.471 57.0077 171.947 57.0077C171.454 57.0077 170.992 56.915 170.561 56.7295C170.13 56.544 169.76 56.2966 169.421 55.9566C169.083 55.6165 168.836 55.2455 168.651 54.8127C168.466 54.3799 168.374 53.9162 168.374 53.4215C168.374 52.9269 168.466 52.4632 168.651 52.0303C168.836 51.5975 169.083 51.2265 169.421 50.8865C169.76 50.5464 170.13 50.2991 170.561 50.1136C170.992 49.9281 171.454 49.8354 171.947 49.8354C172.471 49.8354 172.933 49.959 173.333 50.2063C173.734 50.4537 174.042 50.7628 174.258 51.1647V46.6202ZM171.947 55.9257C172.409 55.9257 172.779 55.802 173.118 55.5856C173.457 55.3692 173.703 55.06 173.888 54.6891C174.073 54.3181 174.165 53.8853 174.165 53.4524C174.165 52.9887 174.073 52.5559 173.888 52.1849C173.703 51.8139 173.457 51.5048 173.118 51.2884C172.779 51.072 172.409 50.9483 171.947 50.9483C171.485 50.9483 171.085 51.072 170.715 51.2884C170.345 51.5048 170.068 51.8139 169.853 52.1849C169.637 52.5559 169.514 52.9887 169.514 53.4524C169.514 53.9162 169.637 54.3181 169.853 54.72C170.068 55.091 170.376 55.4001 170.746 55.6165C171.116 55.8329 171.516 55.9257 171.947 55.9257Z" fill="white"/>
<path d="M178.108 48.9389C177.923 48.9389 177.769 48.8771 177.646 48.7534C177.523 48.6297 177.461 48.4752 177.461 48.3206C177.461 48.166 177.523 47.9805 177.646 47.8878C177.769 47.7641 177.923 47.7023 178.108 47.7023C178.293 47.7023 178.447 47.7641 178.57 47.8878C178.693 48.0114 178.755 48.166 178.755 48.3206C178.755 48.4752 178.693 48.6606 178.57 48.7534C178.447 48.8771 178.293 48.9389 178.108 48.9389ZM177.523 50.0518H178.663V56.8841H177.523V50.0518Z" fill="white"/>
<path d="M184.207 57.0386C183.591 57.0386 183.005 56.884 182.482 56.544C181.958 56.2348 181.558 55.802 181.25 55.2455C180.942 54.6891 180.788 54.1017 180.788 53.4524C180.788 52.9578 180.88 52.4941 181.065 52.0613C181.25 51.6284 181.496 51.2575 181.804 50.9174C182.112 50.5773 182.482 50.33 182.882 50.1445C183.283 49.959 183.745 49.8663 184.207 49.8663C184.823 49.8663 185.408 50.0209 185.932 50.3609C186.456 50.6701 186.856 51.1338 187.164 51.6594C187.472 52.2158 187.626 52.8032 187.626 53.4834C187.626 53.978 187.534 54.4417 187.349 54.8745C187.164 55.3074 186.918 55.6783 186.61 56.0184C186.301 56.3585 185.932 56.6058 185.531 56.7913C185.1 56.9459 184.669 57.0386 184.207 57.0386ZM184.207 55.8947C184.638 55.8947 185.008 55.7711 185.347 55.5547C185.685 55.3383 185.963 55.0291 186.147 54.6581C186.332 54.2872 186.456 53.8853 186.456 53.4524C186.456 53.0196 186.363 52.5868 186.147 52.2158C185.932 51.8448 185.685 51.5357 185.347 51.3193C185.008 51.1029 184.638 50.9792 184.207 50.9792C183.776 50.9792 183.406 51.1029 183.067 51.3193C182.728 51.5357 182.451 51.8448 182.266 52.2158C182.081 52.5868 181.958 52.9887 181.958 53.4524C181.958 53.9162 182.051 54.3181 182.266 54.6891C182.482 55.06 182.759 55.3692 183.098 55.5856C183.406 55.802 183.776 55.8947 184.207 55.8947Z" fill="white"/>
<defs>
<linearGradient id="paint0_linear_10_87" x1="122.106" y1="51.6839" x2="93.6436" y2="51.6839" gradientUnits="userSpaceOnUse">
<stop stop-color="#1BFFF3"/>
<stop offset="1" stop-color="#AEFFAE"/>
</linearGradient>
</defs>
</svg>
